<mxfile host="app.diagrams.net" agent="Mozilla/5.0 (Windows NT 10.0; Win64; x64) AppleWebKit/537.36 (KHTML, like Gecko) Chrome/133.0.0.0 Safari/537.36 Edg/133.0.0.0" version="26.0.16">
  <diagram name="Страница — 1" id="DGMHPTNsVfjtH386rzCG">
    <mxGraphModel dx="1282" dy="565" grid="1" gridSize="10" guides="1" tooltips="1" connect="1" arrows="1" fold="1" page="1" pageScale="1" pageWidth="827" pageHeight="1169" math="0" shadow="0">
      <root>
        <mxCell id="0" />
        <mxCell id="1" parent="0" />
        <mxCell id="yAhP08BfrkxaackpBBG2-12" style="edgeStyle=orthogonalEdgeStyle;rounded=0;orthogonalLoop=1;jettySize=auto;html=1;exitX=0.5;exitY=1;exitDx=0;exitDy=0;entryX=0.5;entryY=0;entryDx=0;entryDy=0;" edge="1" parent="1" source="yAhP08BfrkxaackpBBG2-1" target="yAhP08BfrkxaackpBBG2-2">
          <mxGeometry relative="1" as="geometry" />
        </mxCell>
        <mxCell id="yAhP08BfrkxaackpBBG2-1" value="&lt;font style=&quot;font-size: 18px;&quot;&gt;Начало&lt;/font&gt;" style="ellipse;whiteSpace=wrap;html=1;" vertex="1" parent="1">
          <mxGeometry x="60" width="120" height="40" as="geometry" />
        </mxCell>
        <mxCell id="yAhP08BfrkxaackpBBG2-13" style="edgeStyle=orthogonalEdgeStyle;rounded=0;orthogonalLoop=1;jettySize=auto;html=1;exitX=0.5;exitY=1;exitDx=0;exitDy=0;entryX=0.5;entryY=0;entryDx=0;entryDy=0;" edge="1" parent="1" source="yAhP08BfrkxaackpBBG2-2" target="yAhP08BfrkxaackpBBG2-3">
          <mxGeometry relative="1" as="geometry" />
        </mxCell>
        <mxCell id="yAhP08BfrkxaackpBBG2-2" value="&lt;font style=&quot;font-size: 14px;&quot;&gt;ввод xl, n, E&lt;/font&gt;" style="shape=parallelogram;perimeter=parallelogramPerimeter;whiteSpace=wrap;html=1;fixedSize=1;" vertex="1" parent="1">
          <mxGeometry x="65" y="60" width="110" height="40" as="geometry" />
        </mxCell>
        <mxCell id="yAhP08BfrkxaackpBBG2-14" style="edgeStyle=orthogonalEdgeStyle;rounded=0;orthogonalLoop=1;jettySize=auto;html=1;exitX=0.5;exitY=1;exitDx=0;exitDy=0;entryX=0.5;entryY=0;entryDx=0;entryDy=0;" edge="1" parent="1" source="yAhP08BfrkxaackpBBG2-3" target="yAhP08BfrkxaackpBBG2-4">
          <mxGeometry relative="1" as="geometry" />
        </mxCell>
        <mxCell id="yAhP08BfrkxaackpBBG2-16" style="edgeStyle=orthogonalEdgeStyle;rounded=0;orthogonalLoop=1;jettySize=auto;html=1;exitX=1;exitY=0.5;exitDx=0;exitDy=0;entryX=1;entryY=0.5;entryDx=0;entryDy=0;" edge="1" parent="1" source="yAhP08BfrkxaackpBBG2-3" target="yAhP08BfrkxaackpBBG2-5">
          <mxGeometry relative="1" as="geometry" />
        </mxCell>
        <mxCell id="yAhP08BfrkxaackpBBG2-3" value="&lt;font style=&quot;font-size: 14px;&quot;&gt;i = 0, 1, ... , n&lt;/font&gt;" style="shape=hexagon;perimeter=hexagonPerimeter2;whiteSpace=wrap;html=1;fixedSize=1;" vertex="1" parent="1">
          <mxGeometry x="70" y="120" width="100" height="50" as="geometry" />
        </mxCell>
        <mxCell id="yAhP08BfrkxaackpBBG2-15" style="edgeStyle=orthogonalEdgeStyle;rounded=0;orthogonalLoop=1;jettySize=auto;html=1;exitX=0.5;exitY=1;exitDx=0;exitDy=0;entryX=0;entryY=0.5;entryDx=0;entryDy=0;" edge="1" parent="1" source="yAhP08BfrkxaackpBBG2-4" target="yAhP08BfrkxaackpBBG2-3">
          <mxGeometry relative="1" as="geometry" />
        </mxCell>
        <mxCell id="yAhP08BfrkxaackpBBG2-4" value="&lt;font style=&quot;font-size: 14px;&quot;&gt;Ввод x(i), y(i)&lt;/font&gt;" style="shape=parallelogram;perimeter=parallelogramPerimeter;whiteSpace=wrap;html=1;fixedSize=1;" vertex="1" parent="1">
          <mxGeometry x="60" y="190" width="120" height="40" as="geometry" />
        </mxCell>
        <mxCell id="yAhP08BfrkxaackpBBG2-17" style="edgeStyle=orthogonalEdgeStyle;rounded=0;orthogonalLoop=1;jettySize=auto;html=1;exitX=0.5;exitY=1;exitDx=0;exitDy=0;entryX=0.5;entryY=0;entryDx=0;entryDy=0;" edge="1" parent="1" source="yAhP08BfrkxaackpBBG2-5" target="yAhP08BfrkxaackpBBG2-6">
          <mxGeometry relative="1" as="geometry" />
        </mxCell>
        <mxCell id="yAhP08BfrkxaackpBBG2-5" value="&lt;font style=&quot;font-size: 14px;&quot;&gt;K = 1&lt;/font&gt;" style="rounded=0;whiteSpace=wrap;html=1;" vertex="1" parent="1">
          <mxGeometry x="80" y="260" width="80" height="40" as="geometry" />
        </mxCell>
        <mxCell id="yAhP08BfrkxaackpBBG2-18" style="edgeStyle=orthogonalEdgeStyle;rounded=0;orthogonalLoop=1;jettySize=auto;html=1;exitX=0.5;exitY=1;exitDx=0;exitDy=0;entryX=0.5;entryY=0;entryDx=0;entryDy=0;" edge="1" parent="1" source="yAhP08BfrkxaackpBBG2-6" target="yAhP08BfrkxaackpBBG2-7">
          <mxGeometry relative="1" as="geometry" />
        </mxCell>
        <mxCell id="yAhP08BfrkxaackpBBG2-6" value="&lt;font style=&quot;font-size: 14px;&quot;&gt;LL = LX()&lt;/font&gt;&lt;div&gt;&lt;font size=&quot;3&quot;&gt;L(k) = LL&lt;/font&gt;&lt;/div&gt;" style="rounded=0;whiteSpace=wrap;html=1;" vertex="1" parent="1">
          <mxGeometry x="75" y="320" width="90" height="50" as="geometry" />
        </mxCell>
        <mxCell id="yAhP08BfrkxaackpBBG2-19" style="edgeStyle=orthogonalEdgeStyle;rounded=0;orthogonalLoop=1;jettySize=auto;html=1;exitX=0.5;exitY=1;exitDx=0;exitDy=0;entryX=0.5;entryY=0;entryDx=0;entryDy=0;" edge="1" parent="1" source="yAhP08BfrkxaackpBBG2-7" target="yAhP08BfrkxaackpBBG2-8">
          <mxGeometry relative="1" as="geometry" />
        </mxCell>
        <mxCell id="yAhP08BfrkxaackpBBG2-7" value="&lt;font style=&quot;font-size: 14px;&quot;&gt;A = LL&lt;/font&gt;&lt;div&gt;&lt;font size=&quot;3&quot;&gt;k = k+1&lt;/font&gt;&lt;/div&gt;" style="rounded=0;whiteSpace=wrap;html=1;" vertex="1" parent="1">
          <mxGeometry x="85" y="390" width="70" height="50" as="geometry" />
        </mxCell>
        <mxCell id="yAhP08BfrkxaackpBBG2-20" style="edgeStyle=orthogonalEdgeStyle;rounded=0;orthogonalLoop=1;jettySize=auto;html=1;exitX=0.5;exitY=1;exitDx=0;exitDy=0;entryX=0.5;entryY=0;entryDx=0;entryDy=0;" edge="1" parent="1" source="yAhP08BfrkxaackpBBG2-8" target="yAhP08BfrkxaackpBBG2-9">
          <mxGeometry relative="1" as="geometry" />
        </mxCell>
        <mxCell id="yAhP08BfrkxaackpBBG2-8" value="&lt;font size=&quot;3&quot;&gt;LL = LX()&lt;/font&gt;&lt;div&gt;&lt;font size=&quot;3&quot;&gt;L(k) = LL&lt;/font&gt;&lt;/div&gt;&lt;div&gt;&lt;font size=&quot;3&quot;&gt;E1 = |LL-A|&lt;/font&gt;&lt;/div&gt;" style="rounded=0;whiteSpace=wrap;html=1;" vertex="1" parent="1">
          <mxGeometry x="65" y="460" width="110" height="60" as="geometry" />
        </mxCell>
        <mxCell id="yAhP08BfrkxaackpBBG2-21" style="edgeStyle=orthogonalEdgeStyle;rounded=0;orthogonalLoop=1;jettySize=auto;html=1;exitX=0.5;exitY=1;exitDx=0;exitDy=0;entryX=0.5;entryY=0;entryDx=0;entryDy=0;" edge="1" parent="1" source="yAhP08BfrkxaackpBBG2-9" target="yAhP08BfrkxaackpBBG2-10">
          <mxGeometry relative="1" as="geometry" />
        </mxCell>
        <mxCell id="yAhP08BfrkxaackpBBG2-24" style="edgeStyle=orthogonalEdgeStyle;rounded=0;orthogonalLoop=1;jettySize=auto;html=1;exitX=1;exitY=0.5;exitDx=0;exitDy=0;" edge="1" parent="1" source="yAhP08BfrkxaackpBBG2-9">
          <mxGeometry relative="1" as="geometry">
            <mxPoint x="120" y="380" as="targetPoint" />
            <Array as="points">
              <mxPoint x="210" y="585" />
              <mxPoint x="210" y="380" />
            </Array>
          </mxGeometry>
        </mxCell>
        <mxCell id="yAhP08BfrkxaackpBBG2-9" value="&lt;font size=&quot;3&quot;&gt;E1 &amp;lt;= E&lt;/font&gt;&lt;div&gt;&lt;font size=&quot;3&quot;&gt;или&lt;/font&gt;&lt;/div&gt;&lt;div&gt;&lt;font size=&quot;3&quot;&gt;k &amp;gt;= N&lt;/font&gt;&lt;/div&gt;" style="rhombus;whiteSpace=wrap;html=1;" vertex="1" parent="1">
          <mxGeometry x="50" y="535" width="140" height="100" as="geometry" />
        </mxCell>
        <mxCell id="yAhP08BfrkxaackpBBG2-23" style="edgeStyle=orthogonalEdgeStyle;rounded=0;orthogonalLoop=1;jettySize=auto;html=1;exitX=0.5;exitY=1;exitDx=0;exitDy=0;entryX=0.5;entryY=0;entryDx=0;entryDy=0;" edge="1" parent="1" source="yAhP08BfrkxaackpBBG2-10" target="yAhP08BfrkxaackpBBG2-11">
          <mxGeometry relative="1" as="geometry" />
        </mxCell>
        <mxCell id="yAhP08BfrkxaackpBBG2-10" value="&lt;font style=&quot;font-size: 14px;&quot;&gt;Вывод&amp;nbsp;&lt;/font&gt;&lt;div&gt;&lt;font size=&quot;3&quot;&gt;L(1:k)&lt;/font&gt;&lt;/div&gt;" style="shape=parallelogram;perimeter=parallelogramPerimeter;whiteSpace=wrap;html=1;fixedSize=1;" vertex="1" parent="1">
          <mxGeometry x="67.5" y="650" width="105" height="50" as="geometry" />
        </mxCell>
        <mxCell id="yAhP08BfrkxaackpBBG2-11" value="&lt;font style=&quot;font-size: 18px;&quot;&gt;Конец&lt;/font&gt;" style="ellipse;whiteSpace=wrap;html=1;" vertex="1" parent="1">
          <mxGeometry x="80" y="720" width="80" height="40" as="geometry" />
        </mxCell>
        <mxCell id="yAhP08BfrkxaackpBBG2-22" value="Да" style="text;html=1;align=center;verticalAlign=middle;whiteSpace=wrap;rounded=0;" vertex="1" parent="1">
          <mxGeometry x="105" y="620" width="60" height="30" as="geometry" />
        </mxCell>
        <mxCell id="yAhP08BfrkxaackpBBG2-25" value="Нет" style="text;html=1;align=center;verticalAlign=middle;whiteSpace=wrap;rounded=0;" vertex="1" parent="1">
          <mxGeometry x="200" y="555" width="60" height="30" as="geometry" />
        </mxCell>
        <mxCell id="yAhP08BfrkxaackpBBG2-26" value="" style="endArrow=none;dashed=1;html=1;rounded=0;exitX=1;exitY=0.5;exitDx=0;exitDy=0;" edge="1" parent="1" source="yAhP08BfrkxaackpBBG2-10" target="yAhP08BfrkxaackpBBG2-27">
          <mxGeometry width="50" height="50" relative="1" as="geometry">
            <mxPoint x="240" y="560" as="sourcePoint" />
            <mxPoint x="240" y="675" as="targetPoint" />
          </mxGeometry>
        </mxCell>
        <mxCell id="yAhP08BfrkxaackpBBG2-27" value="Массив значений многочленов Лагранжа степеней от 1 до k" style="text;html=1;align=center;verticalAlign=middle;whiteSpace=wrap;rounded=0;" vertex="1" parent="1">
          <mxGeometry x="210" y="660" width="150" height="30" as="geometry" />
        </mxCell>
        <mxCell id="yAhP08BfrkxaackpBBG2-28" value="" style="endArrow=none;dashed=1;html=1;dashPattern=1 3;strokeWidth=2;rounded=0;exitX=1;exitY=0.5;exitDx=0;exitDy=0;" edge="1" parent="1" source="yAhP08BfrkxaackpBBG2-2" target="yAhP08BfrkxaackpBBG2-29">
          <mxGeometry width="50" height="50" relative="1" as="geometry">
            <mxPoint x="240" y="300" as="sourcePoint" />
            <mxPoint x="240" y="80" as="targetPoint" />
          </mxGeometry>
        </mxCell>
        <mxCell id="yAhP08BfrkxaackpBBG2-29" value="xl - значение аргумента для вычисления&amp;nbsp; L(xl)&lt;div&gt;n+1 - число узлов интерполяции&lt;/div&gt;&lt;div&gt;E - требуемая точность интерполяции&lt;/div&gt;" style="text;html=1;align=center;verticalAlign=middle;whiteSpace=wrap;rounded=0;" vertex="1" parent="1">
          <mxGeometry x="210" y="65" width="220" height="35" as="geometry" />
        </mxCell>
        <mxCell id="yAhP08BfrkxaackpBBG2-30" value="" style="endArrow=none;dashed=1;html=1;rounded=0;exitX=1;exitY=0.5;exitDx=0;exitDy=0;" edge="1" parent="1" source="yAhP08BfrkxaackpBBG2-4" target="yAhP08BfrkxaackpBBG2-31">
          <mxGeometry width="50" height="50" relative="1" as="geometry">
            <mxPoint x="240" y="390" as="sourcePoint" />
            <mxPoint x="240" y="210" as="targetPoint" />
          </mxGeometry>
        </mxCell>
        <mxCell id="yAhP08BfrkxaackpBBG2-31" value="x(0:n) - массив значений аргументов в узлах интерполяции&amp;nbsp;&lt;div&gt;y(0:n) - массив значений функции в узлах интерполяции&lt;/div&gt;" style="text;html=1;align=center;verticalAlign=middle;whiteSpace=wrap;rounded=0;" vertex="1" parent="1">
          <mxGeometry x="210" y="195" width="220" height="25" as="geometry" />
        </mxCell>
        <mxCell id="yAhP08BfrkxaackpBBG2-32" value="" style="endArrow=none;dashed=1;html=1;rounded=0;exitX=1;exitY=0.5;exitDx=0;exitDy=0;" edge="1" parent="1" source="yAhP08BfrkxaackpBBG2-6" target="yAhP08BfrkxaackpBBG2-33">
          <mxGeometry width="50" height="50" relative="1" as="geometry">
            <mxPoint x="180" y="360" as="sourcePoint" />
            <mxPoint x="250" y="345" as="targetPoint" />
          </mxGeometry>
        </mxCell>
        <mxCell id="yAhP08BfrkxaackpBBG2-33" value="Вызов процедуры - функции LX(k,x(),y(),xl) и присваивание вычисленного значения элементу массива L(k)" style="text;html=1;align=center;verticalAlign=middle;whiteSpace=wrap;rounded=0;" vertex="1" parent="1">
          <mxGeometry x="220" y="330" width="210" height="30" as="geometry" />
        </mxCell>
      </root>
    </mxGraphModel>
  </diagram>
</mxfile>
